<?xml version="1.0" encoding="UTF-8"?>
<svg id="Layer_2" data-name="Layer 2" xmlns="http://www.w3.org/2000/svg" viewBox="0 0 470 470">
  <path d="M220.63,66.19h-80.4c-7.98,0-12.65,9.27-8.05,15.95l101.02,147.01c2.44,3.52,2.44,8.19,0,11.71l-101.02,147.01c-4.6,6.68,0,15.95,8.05,15.95h80.4c3.16,0,6.18-1.58,8.05-4.31l109.14-158.72c2.44-3.52,2.44-8.19,0-11.71l-109.14-158.65c-1.87-2.66-4.81-4.24-8.05-4.24h0Z"/>
  <path d="M98.78,66.19H18.37c-7.98,0-12.65,9.27-8.05,15.95l101.02,147.01c2.44,3.52,2.44,8.19,0,11.71L10.33,387.86c-4.6,6.68,0,15.95,8.05,15.95h80.4c3.16,0,6.18-1.58,8.05-4.31l109.14-158.72c2.44-3.52,2.44-8.19,0-11.71L106.82,70.43c-1.87-2.66-4.81-4.24-8.05-4.24h0Z"/>
  <path d="M342.48,66.19h-80.4c-7.98,0-12.65,9.27-8.05,15.95l101.02,147.01c2.44,3.52,2.44,8.19,0,11.71l-101.02,147.01c-4.6,6.68,0,15.95,8.05,15.95h80.4c3.16,0,6.18-1.58,8.05-4.31l109.14-158.72c2.44-3.52,2.44-8.19,0-11.71l-109.14-158.65c-1.87-2.66-4.81-4.24-8.05-4.24h0Z"/>
</svg>