<?xml version="1.0" encoding="UTF-8"?>
<svg id="Layer_1" data-name="Layer 1" xmlns="http://www.w3.org/2000/svg" viewBox="0 0 398 398">
  <defs>
    <style>
      .cls-1 {
        fill: #020202;
      }
    </style>
  </defs>
  <path d="M397.82,38.42c-4.71-20.4-19.01-34.35-39.23-38.29l-.66-.13H39.08l-.89.24C22.93,4.34,12.4,11.89,6.01,23.34c-1.58,2.83-2.61,5.7-3.52,8.23-.6,1.68-1.17,3.27-1.85,4.73l-.65,1.4v322.59l.65,1.4c.68,1.46,1.25,3.05,1.85,4.73.91,2.53,1.94,5.41,3.52,8.23,7.81,13.99,20.71,19.64,31.08,23l1.05.34h319.8l.68-.14c19.68-3.96,33.57-17.19,39.12-37.25l.25-.91V39.2l-.18-.78ZM45.69,361.53c-4.62-.15-8.7-4.02-9.22-8.71V45.69c.15-4.87,4.35-9.07,9.22-9.22h307.24c1.79.15,4.53,1.43,5.85,2.75,1.45,1.45,2.79,4.48,2.75,6.22v.08s0,.08,0,.08v307.23c-.5,4.53-4.18,8.21-8.71,8.71H45.69Z"/>
  <path class="cls-1" d="M78.25,271.75c-.34-2.6.75-4.78,1.49-7.14,13.4-42.84,31.3-85.24,45.24-128.01,1.55-2.39.69-10.59,1.6-11.9,1.19-1.72,29.48-.12,33.72-.75l52.21,147.8h-27.38c-6.34-12.22-8.91-26.2-14.61-38.64l-53.29-.02-13.84,38.66h-25.12ZM163,208l-19.13-61.51-19.12,61.51h38.25Z"/>
  <path class="cls-1" d="M248.5,222.25c1.26,33.4,39.54,31.92,63,23.25v20.62c0,1.38-7.45,4.02-8.99,4.51-53.11,16.83-94.84-20.38-78.55-74.8,16.58-55.36,101.16-50.37,95.82,19.32-.26,3.42-.67,7.1-4.9,7.1h-66.38ZM248.5,203.5h44.62c4.13,0-1.73-13.22-3.39-15.36-13.35-17.08-40.98-5.43-41.23,15.36Z"/>
</svg>