<?xml version="1.0" encoding="UTF-8"?>
<svg id="Layer_1" data-name="Layer 1" xmlns="http://www.w3.org/2000/svg" viewBox="0 0 384 384">
  <path d="M204.07,0l19.65,2.47c82.16,13.46,147.87,81.06,158.67,163.76.59,4.51.46,9.45,1.61,13.77v24c-1.16,4.32-1.01,9.26-1.61,13.77-10.97,82.79-76.38,150.23-158.67,163.76l-19.65,2.47h-23.99c-4.32-1.16-9.26-1.01-13.76-1.61C81.48,371.14,12.85,302.73,1.75,217.77c-.59-4.51-.46-9.45-1.61-13.77.34-7.93-.46-16.09,0-24C5.72,84.68,84.79,5.58,180.08,0h23.99ZM182.17,30.22C56.52,37.78-13.5,181.74,59.51,285.24c67.72,95.99,212.6,90.34,272.14-10.98,65.79-111.97-20.45-251.8-149.48-244.03Z"/>
  <path d="M247.31,272.01c-5.48,0-10.89-1.83-15.65-5.3l-.61-.45-38.74-38.4-39.72,39.05-.83.54c-4.55,2.97-9.66,4.55-14.76,4.55-9.33,0-18.08-5.36-22.31-13.66-4.32-8.49-3.31-18.48,2.7-26.72l.45-.61,38.38-38.75-36.75-37.34c-6.38-6.07-8.83-15.91-6.25-25.17,2.51-8.99,9.01-15.39,17.4-17.12,1.96-.4,3.98-.61,5.98-.61,6.09,0,11.87,1.91,16.28,5.37l.47.37,38.52,38.4,39.77-38.83.72-.49c4.62-3.16,9.81-4.83,15.01-4.83,9.31,0,17.74,5.21,22,13.59,4.35,8.56,3.37,18.57-2.62,26.8l-.45.61-38.41,38.79,38.84,39.81.49.72c5.63,8.24,6.38,18.12,2,26.42-4.32,8.19-12.71,13.27-21.91,13.28h0Z"/>
  <path d="M132.64,122.42c4.79-.99,10.2-.21,14.07,2.83l45.09,44.94,46.21-45.12c14.87-10.17,31.27,6.86,20.66,21.42l-44.8,45.23,45.1,46.22c10.17,14.87-6.86,31.28-21.41,20.67l-45.21-44.82-46.05,45.27c-14.92,9.75-31.56-6.83-20.82-21.57l44.8-45.23-43.81-44.51c-7.79-7.23-4.42-23.15,6.18-25.34Z"/>
</svg>