<?xml version="1.0" encoding="UTF-8"?>
<svg id="Layer_2" xmlns="http://www.w3.org/2000/svg" version="1.1" viewBox="0 0 500 500">
  <!-- Generator: Adobe Illustrator 29.5.0, SVG Export Plug-In . SVG Version: 2.1.0 Build 137)  -->
  <path d="M324.1,14.9h-111.9c-11.2,0-17.6,13-11.2,22.3l140.6,204.6c3.4,4.9,3.4,11.4,0,16.3l-140.7,204.6c-6.4,9.4.1,22.3,11.2,22.3h111.9c4.5,0,8.6-2.3,11.2-6l151.9-220.9c3.4-4.9,3.4-11.4,0-16.3L335.2,21c-2.6-3.8-6.8-6-11.2-6h.1Z"/>
  <path d="M136,14.9H24.1c-11.2,0-17.6,13-11.2,22.3l140.6,204.6c3.4,4.9,3.4,11.4,0,16.3L12.8,462.7c-6.4,9.4.1,22.3,11.2,22.3h111.9c4.5,0,8.6-2.3,11.2-6l151.9-220.9c3.4-4.9,3.4-11.4,0-16.3L147.1,21c-2.6-3.8-6.8-6-11.2-6h.1Z"/>
</svg>