<?xml version="1.0" encoding="UTF-8"?>
<svg id="Layer_1" xmlns="http://www.w3.org/2000/svg" version="1.1" viewBox="0 0 384 384">
  <!-- Generator: Adobe Illustrator 29.5.0, SVG Export Plug-In . SVG Version: 2.1.0 Build 137)  -->
  <path d="M221.6,91.3v71.1h71.1v-24.8c0-.6,2.3-5,3-5.7,3.6-4.3,11.8-4.9,16.3-1.6,15.1,16.8,33,32.4,47.8,49.2,9.6,10.9,9.6,14.3,0,25.2-14.9,16.8-32.8,32.4-47.8,49.2-3.1,2.4-8.7,2.6-12.2,1.2-2.3-.9-7-6.3-7-8.6v-24.8h-71.1v71.1h24.8c2.3,0,7.7,4.7,8.6,7,1.4,3.6,1.2,9.1-1.2,12.2-17.1,15.2-32.8,33.7-49.9,48.6-1.4,1.3-4.7,4.2-6.2,5-8.2,4.3-13.5-1.4-19-6.4-16.5-14.8-31.9-32.1-48.5-47.1-3.5-4.6-2.8-12.5,1.6-16.3.7-.6,5.1-3,5.7-3h24.8v-71.1h-71.1v24.8c0,2.3-4.7,7.7-7,8.6-3.6,1.4-9.1,1.2-12.2-1.2-15.1-16.8-33-32.4-47.8-49.2-1.9-2.1-6.3-7-6.9-9.4-1.5-7.3,2.5-10.8,6.9-15.8,14.8-16.8,32.8-32.4,47.8-49.2,3.1-2.4,8.7-2.6,12.2-1.2,2.3.9,7,6.3,7,8.6v24.8h71.1v-71.1h-24.8c-.5,0-3.7-1.7-4.5-2.2-5.7-4-6.7-11.3-2.9-17,16.5-15,31.9-32.3,48.5-47.1,5.6-5,10.9-10.7,19-6.4,1.4.7,4.7,3.7,6.2,5,17.1,14.9,32.9,33.4,49.9,48.6,2.4,3.1,2.6,8.7,1.2,12.2-.9,2.3-6.3,7-8.6,7h-24.8Z"/>
</svg>