<?xml version="1.0" encoding="UTF-8"?>
<svg id="Layer_1" data-name="Layer 1" xmlns="http://www.w3.org/2000/svg" viewBox="0 0 398 398">
  <path d="M397.82,38.42c-4.71-20.4-19.01-34.35-39.23-38.29l-.66-.13H39.08l-.89.24C22.93,4.34,12.4,11.89,6.01,23.34c-1.58,2.83-2.61,5.7-3.52,8.23-.6,1.68-1.17,3.27-1.85,4.73l-.65,1.4v322.59l.65,1.4c.68,1.46,1.25,3.05,1.85,4.73.91,2.53,1.94,5.41,3.52,8.23,7.81,13.99,20.71,19.64,31.08,23l1.05.34h319.8l.68-.14c19.68-3.96,33.57-17.19,39.12-37.25l.25-.91V39.2l-.18-.78ZM45.69,361.53c-4.62-.15-8.7-4.02-9.22-8.71V45.69c.15-4.87,4.35-9.07,9.22-9.22h307.24c1.79.15,4.53,1.43,5.85,2.75,1.45,1.45,2.79,4.48,2.75,6.22v.08s0,.08,0,.08v307.23c-.5,4.53-4.18,8.21-8.71,8.71H45.69Z"/>
  <g>
    <path d="M105.84,274.79c-.55-.17-1.17-1.2-1.15-1.87l46.8-133.63,1.47-11.26,33.65-.75,52.09,144.97c.32.8-.53,2.53-1.11,2.53h-25.45c-.46,0-1.95-1-2.1-1.7l-12.95-37.27-53.47.39-12.46,36.88c-.15.7-1.65,1.7-2.1,1.7-4.53,0-20.25.9-23.2,0ZM190.05,211.16l-19.84-61.39-19.09,61.39h38.92Z"/>
    <path d="M282.86,274.04c-.71,1.11-24.42,1.19-26.19.36-.35-.17-1.51-1.36-1.51-1.49v-107.79l1.12-1.12h25.45l1.12,1.12v108.91Z"/>
    <path d="M267.75,117.79c21.39-1.87,22.65,30.41,1.98,31.27-20.37.85-21.53-29.56-1.98-31.27Z"/>
  </g>
</svg>