<?xml version="1.0" encoding="UTF-8"?>
<svg id="Layer_1" data-name="Layer 1" xmlns="http://www.w3.org/2000/svg" viewBox="0 0 384 384">
  <defs>
    <style>
      .cls-1 {
        fill: #010101;
      }
    </style>
  </defs>
  <path class="cls-1" d="M376.92,182.66v19.46c-2.7,14.06-6.65,27.26-14.45,39.39-29.67,45.85-91.79,56.06-134.65,21.96-2.7-2.12-19.94-18.2-19.94-19.84l35.16-35.73c.87-.29,1.35.19,2.02.58,4.72,3.18,10.11,11.17,15.22,15.12,23.5,18.01,58.46,5.59,64.34-23.5,7.32-36.79-35.16-62.7-64.72-39.49-34.19,30.92-64.92,68.96-99.3,99.2-43.05,37.85-108.35,29.67-139.27-18.78-7.61-11.85-11.27-24.56-14.16-38.24.58-6.93-.77-14.93,0-21.67,3.95-34.96,31.5-67.04,65.01-76.96,40.36-11.94,78.79,4.14,104.02,36.12l-34.29,35.06-1.44.67c-7.61-5.59-13-14.16-21.57-18.97-36.99-20.71-76.86,21.86-53.46,57.12,13.2,19.94,41.22,23.6,59.52,8.38,33.52-30.82,63.95-67.71,97.76-97.95,56.34-50.28,147.27-17.24,154.1,57.79l.1.29Z"/>
</svg>