<?xml version="1.0" encoding="UTF-8"?>
<svg id="Layer_1" data-name="Layer 1" xmlns="http://www.w3.org/2000/svg" viewBox="0 0 384 384">
  <path d="M55.33,84.21l271.32-.24c17.79,1.63,31.75,15.61,33.38,33.38v149.3c-1.63,17.79-15.61,31.75-33.38,33.38H57.35c-17.57-1.62-31.31-15.2-33.34-32.66V116.64c1.95-16.75,14.66-29.98,31.32-32.43ZM57.56,108.18c-3.97.67-8.02,4.3-9.04,8.21l-.52,148.74c.44,5.96,5.72,10.61,11.6,10.9h264.81c6.17-.35,11.53-5.28,11.63-11.62V119.59c-.2-6.34-5.28-11.43-11.63-11.62l-266.85.21Z"/>
  <path d="M141.56,228.18l100.25-.11c13.98,2.79,13.45,21.97-.68,23.94l-98.94-.07c-13.27-2.58-13.74-20.47-.64-23.75Z"/>
  <path d="M93.56,132.18c3.44-.58,12.03-.58,15.57-.18,11.69,1.31,14.95,16.66,5.14,22.39-4.38,2.56-20.64,2.52-24.98-.3-8.85-5.76-6.01-20.18,4.27-21.91Z"/>
  <path d="M153.56,132.18c3.44-.58,12.03-.58,15.57-.18,11.69,1.31,14.95,16.66,5.14,22.39-4.38,2.56-20.64,2.52-24.98-.3-8.85-5.76-6.01-20.18,4.27-21.91Z"/>
  <path d="M213.56,132.18c3.44-.58,12.03-.58,15.57-.18,11.69,1.31,14.95,16.66,5.14,22.39-4.38,2.56-20.64,2.52-24.98-.3-8.85-5.76-6.01-20.18,4.27-21.91Z"/>
  <path d="M273.56,132.18c3.44-.58,12.03-.58,15.57-.18,11.69,1.31,14.95,16.66,5.14,22.39-4.38,2.56-20.64,2.52-24.98-.3-8.85-5.76-6.01-20.18,4.27-21.91Z"/>
  <path d="M93.56,180.18c3.44-.58,12.03-.58,15.57-.18,11.69,1.31,14.95,16.66,5.14,22.39-4.38,2.56-20.64,2.52-24.98-.3-8.85-5.76-6.01-20.18,4.27-21.91Z"/>
  <path d="M153.56,180.18c3.44-.58,12.03-.58,15.57-.18,11.69,1.31,14.95,16.66,5.14,22.39-4.38,2.56-20.64,2.52-24.98-.3-8.85-5.76-6.01-20.18,4.27-21.91Z"/>
  <path d="M213.56,180.18c3.44-.58,12.03-.58,15.57-.18,11.69,1.31,14.95,16.66,5.14,22.39-4.38,2.56-20.64,2.52-24.98-.3-8.85-5.76-6.01-20.18,4.27-21.91Z"/>
  <path d="M273.56,180.18c3.44-.58,12.03-.58,15.57-.18,11.69,1.31,14.95,16.66,5.14,22.39-4.38,2.56-20.64,2.52-24.98-.3-8.85-5.76-6.01-20.18,4.27-21.91Z"/>
</svg>