<?xml version="1.0" encoding="UTF-8"?>
<svg id="Layer_1" data-name="Layer 1" xmlns="http://www.w3.org/2000/svg" viewBox="0 0 380 380">
  <path d="M249.6,12.49l117.8,117.87v113.72c-7.87,43.68-68.36,44.18-76.14.26l-.45-84.15-70.28-70.43-2.43-1.04-81.8.03c-37.27-5.33-46.02-54.54-12.6-72.23l12.25-4.04h113.66Z"/>
  <path d="M55.57,367.51h-9.7c-17.42-3.08-30.18-15.81-33.26-33.28.25-3.12-.35-6.66,0-9.71,1.01-8.92,6.33-17.05,12.12-23.58L213.22,112.35l53.73,54.42-187.45,188.27c-6.58,6.06-14.8,11.44-23.93,12.46h0Z"/>
  <path d="M334.14,12.49c17.5,3.06,30.13,15.78,33.26,33.28-.25,3.12.35,6.66,0,9.71-.97,8.6-6.57,17.8-12.45,23.94-1.08,1.13-2.81,3.44-4.38,3.03l-53.18-53.66c5.97-7.89,16.98-15.15,27.05-16.29h9.71Z"/>
</svg>