<?xml version="1.0" encoding="UTF-8"?>
<svg id="Layer_1" data-name="Layer 1" xmlns="http://www.w3.org/2000/svg" viewBox="0 0 300 300">
  <path d="M24,245.42c-4.96,0-9-4.04-9-9v-9c0-4.96,4.04-9,9-9h32.11v-43.88c0-7.44,6.06-13.5,13.5-13.5s13.5,6.06,13.5,13.5v43.88h50.02v-105.85c0-9.3,7.57-16.88,16.88-16.88s16.88,7.57,16.88,16.88v105.85h50.02v-43.88c0-7.44,6.06-13.5,13.5-13.5s13.5,6.06,13.5,13.5v43.88h32.11c4.96,0,9,4.04,9,9v9c0,4.96-4.04,9-9,9H24Z"/>
  <path d="M184.21,100.19c-4.07,0-7.95-1.54-10.92-4.32-6.35-5.99-14.62-9.28-23.29-9.28s-16.94,3.29-23.29,9.27c-2.95,2.79-6.83,4.33-10.94,4.33-6.61,0-12.45-3.98-14.89-10.13-2.43-6.09-.92-12.94,3.84-17.45,12.31-11.63,28.39-18.03,45.27-18.03s32.96,6.4,45.26,18.02c4.77,4.5,6.28,11.36,3.84,17.47-2.44,6.14-8.28,10.12-14.88,10.12h0Z"/>
</svg>