<?xml version="1.0" encoding="UTF-8"?>
<svg id="Layer_1" data-name="Layer 1" xmlns="http://www.w3.org/2000/svg" viewBox="0 0 398 398">
  <path d="M397.82,38.42c-4.71-20.4-19.01-34.35-39.23-38.29l-.66-.13H39.08l-.89.24C22.93,4.34,12.4,11.89,6.01,23.34c-1.58,2.83-2.61,5.7-3.52,8.23-.6,1.68-1.17,3.27-1.85,4.73l-.65,1.4v322.59l.65,1.4c.68,1.46,1.25,3.05,1.85,4.73.91,2.53,1.94,5.41,3.52,8.23,7.81,13.99,20.71,19.64,31.08,23l1.05.34h319.8l.68-.14c19.68-3.96,33.57-17.19,39.12-37.25l.25-.91V39.2l-.18-.78ZM45.69,361.53c-4.62-.15-8.7-4.02-9.22-8.71V45.69c.15-4.87,4.35-9.07,9.22-9.22h307.24c1.79.15,4.53,1.43,5.85,2.75,1.45,1.45,2.79,4.48,2.75,6.22v.08s0,.08,0,.08v307.23c-.5,4.53-4.18,8.21-8.71,8.71H45.69Z"/>
  <path d="M101.48,127.76c.62-.43.95-.87,1.74-1.12,2.49-.77,7.84-1.25,10.64-1.55,20.06-2.14,49.68-3.63,68.32,4.39,21.45,9.23,29.87,31.25,24.95,53.51-7.1,32.16-40.5,40.65-69.48,38.09v49.71c0,1.12-1.64,1.28-2.46,1.35-8.12.69-23.11.66-31.25,0-1.09-.09-1.88-.1-2.46-1.16V127.76ZM137.64,192.14c10.32,1.05,23.33.99,30.45-7.82,5.02-6.21,5.7-16.44,1.6-23.3-6.09-10.22-21.83-9.41-32.05-8.12v39.24Z"/>
  <path d="M296.39,242.43c-3.11,33.65-49.35,36.33-74.06,27.82-1.61-.55-6.8-2.53-7.9-3.42-.58-.47-.69-1.42-.68-2.11.05-3.04,4.32-19.29,5.54-22.68.23-.63.31-1.32.95-1.71,1.83-.92,4.85,1.44,6.6,2.17,7.4,3.06,25.69,8.67,32.37,2.92,2.32-2,2.45-5.77.63-8.13-2.82-3.64-15.86-7.16-20.69-9.39-17.31-7.97-28.06-22.44-20.81-42.05,9.49-25.66,45.35-27.98,67.59-20,.9.32,5.22,2.05,5.54,2.55.46.72.36,1.69.26,2.5-.57,4.85-3.76,15.61-5.35,20.57-.19.6-.43,1.92-.91,2.24-.71.4-1.28.35-2.04.2-1.85-.36-5.52-2.53-7.79-3.28-5.44-1.81-18.02-4.39-22.63-.16-2.08,1.91-2.19,5.6-.27,7.65,3.62,3.89,18.41,7.83,24.11,10.73,10.36,5.28,18.43,14.36,19.54,26.35.18,1.91.18,5.33,0,7.24Z"/>
</svg>