<?xml version="1.0" encoding="UTF-8"?>
<svg id="Layer_1" data-name="Layer 1" xmlns="http://www.w3.org/2000/svg" viewBox="0 0 398 398">
  <path d="M397.82,38.42c-4.71-20.4-19.01-34.35-39.23-38.29l-.66-.13H39.08l-.89.24C22.93,4.34,12.4,11.89,6.01,23.34c-1.58,2.83-2.61,5.7-3.52,8.23-.6,1.68-1.17,3.27-1.85,4.73l-.65,1.4v322.59l.65,1.4c.68,1.46,1.25,3.05,1.85,4.73.91,2.53,1.94,5.41,3.52,8.23,7.81,13.99,20.71,19.64,31.08,23l1.05.34h319.8l.68-.14c19.68-3.96,33.57-17.19,39.12-37.25l.25-.91V39.2l-.18-.78ZM45.69,361.53c-4.62-.15-8.7-4.02-9.22-8.71V45.69c.15-4.87,4.35-9.07,9.22-9.22h307.24c1.79.15,4.53,1.43,5.85,2.75,1.45,1.45,2.79,4.48,2.75,6.22v.08s0,.08,0,.08v307.23c-.5,4.53-4.18,8.21-8.71,8.71H45.69Z"/>
  <path d="M130.25,226.59v48.83l-1.17,1.17h-25.78l-1.17-1.17V123.85l2.69-1.21c43.23-3.13,109.35-4.96,104.32,56.67-3.32,40.68-44.79,49.9-78.89,47.28ZM155.64,146.9c-7.92-.89-17.31.66-25.39,0v54.69h23.05c9.12,0,22-7.05,25.78-15.62,8.24-18.67-3.8-36.86-23.44-39.06Z"/>
  <path d="M295.88,158.62v28.12c-13.28-.39-27.99,2.03-37.5,12.11v76.56l-1.17,1.17h-26.56l-1.95-115.62h24.61c3.23,4.56,2.37,10.54,3.9,15.62,9.06-11.48,23.89-18.5,38.68-17.96Z"/>
</svg>