<?xml version="1.0" encoding="UTF-8"?>
<svg id="Layer_2" xmlns="http://www.w3.org/2000/svg" version="1.1" viewBox="0 0 341.7 341.7">
  <!-- Generator: Adobe Illustrator 29.5.0, SVG Export Plug-In . SVG Version: 2.1.0 Build 137)  -->
  <path d="M298.3,97.2v117c0,70.3-57.2,127.5-127.5,127.5s-127.5-57.2-127.5-127.5v-117C43.3,43.6,86.9,0,140.5,0h2.2l2,.8c.1,0,14.3,5.2,26.3,5.3h.5c11.4,0,24.8-5.1,25.3-5.3L198.9,0h2.3C254.7,0,298.3,43.6,298.3,97.2ZM274.1,206.7v-109.5c0-39.3-31.7-71.8-70.8-72.9-4.1,1.4-11.7,3.8-20.3,5.1v96.6h-24.2V29.2c-8.8-1.4-16.5-3.8-20.2-5-39.2,1-70.9,33.5-70.9,72.9v117c0,56.9,46.3,103.2,103.2,103.2s103.2-46.3,103.2-103.2v-7.5h0Z"/>
  <path d="M204,29.3c-3.5,1.2-9.3,3-16,4.3v92.2h81.1v-28.6c0-36.1-29.1-66.3-65.1-67.8h0Z"/>
</svg>