<?xml version="1.0" encoding="UTF-8"?>
<svg id="Layer_1" data-name="Layer 1" xmlns="http://www.w3.org/2000/svg" viewBox="0 0 384 384">
  <defs>
    <style>
      .cls-1 {
        fill: #010101;
      }
    </style>
  </defs>
  <path class="cls-1" d="M331.42,371.7l-.99-.46c-5.76-2.65-9.36-7.02-10.13-12.32-.4-2.74.01-5.61,1.13-8.38H46.31c-2.93,0-8.34-4.16-8.8-4.65-.04-.04-4.04-5.32-4.04-8.19V62.67c-2.06.85-4.17,1.28-6.26,1.28-6.08,0-11.33-3.77-14.41-10.33l-.47-1.01v-1.55c0-4.08,1.04-7.98,3.01-11.28.36-.61.73-1.15,1.13-1.65,4-5.01,16.97-18.09,22.06-21.98,3.46-2.64,6.66-3.86,10.08-3.86,2.25,0,4.51.54,6.9,1.65,3.78,1.76,12.08,10.27,18.37,17.1.29.31.66.71,1.09,1.17,6.16,6.57,8.26,9.23,8.99,11.38,1.64,4.86.93,9.96-1.97,13.99-2.85,3.98-7.49,6.35-12.4,6.35-1.9,0-3.81-.35-5.65-1.04v158.38h85.79c7.72,0,14,6.28,14,14v84.79h157.59c-.93-2.36-1.37-4.82-1.23-7.2.28-4.81,2.83-8.9,7.17-11.5,2.54-1.52,5.15-2.3,7.77-2.3,6.26,0,10.92,4.36,14.66,7.85.53.49,1.05.99,1.58,1.46,4.86,4.4,13.5,12.44,16.7,16.81,5.02,6.87,5.01,13.49-.02,20.26-3.5,4.7-17.47,18.53-22.08,22.12-2.41,1.88-4.33,2.76-6.58,3.72l-.94.4h-6.89ZM135.71,320.09v-70.79H63.93v70.79h71.79Z"/>
</svg>