<?xml version="1.0" encoding="UTF-8"?>
<svg id="Layer_2" xmlns="http://www.w3.org/2000/svg" version="1.1" viewBox="0 0 337.5 337.5">
  <!-- Generator: Adobe Illustrator 29.5.0, SVG Export Plug-In . SVG Version: 2.1.0 Build 137)  -->
  <g id="Layer_1-2">
    <path d="M165.5.3c3.9-.7,8.3-.3,11.4,2.4,25.2,28.6,55.7,56.5,78.6,86.9,4.4,5.8,7.4,10.3,3.4,17.6-2.4,4.4-8.2,7.9-13.3,6.5-19-8.3-37.6-17.5-56.7-25.6-8.1-3.4-15-7.6-24.2-6.3-24.7,9.6-48.7,21.1-72.9,31.9-11,1.4-18.5-9.2-13.3-19.3,4.9-9.5,24.9-29.8,33-38.9,15.4-17.3,31.5-33.9,46.8-51.3,1.8-1.7,4.8-3.5,7.3-3.9h0Z"/>
    <path d="M158.5,333.2c-21.3-24.1-44.1-47.1-65-71.6-4-4.7-15-16.7-16.3-21.9-2.5-10,6-18,16-15.2,21.9,7.9,44,21.8,65.8,29.2,7.8,2.7,11.6,2.7,19.4,0,21.6-7.4,43.6-20.9,65.3-29,9.4-3,18.5,4.1,16.9,13.9-.9,5.2-12.6,18.3-16.6,23-17.6,20.8-37.6,42.9-56.5,62.5-8.4,8.8-16.4,19.4-28.9,9.1h0Z"/>
    <path d="M163.3,132.8c48.2-5.9,52.6,63.3,10.2,67.8-47.4,5-51.8-62.7-10.2-67.8h0Z"/>
  </g>
</svg>