<?xml version="1.0" encoding="UTF-8"?>
<svg id="Layer_1" data-name="Layer 1" xmlns="http://www.w3.org/2000/svg" viewBox="0 0 384 384">
  <path d="M295.3,80.43c12.18-2.09,18.76,7.67,25.26,16.39,41.79,56.13,41.8,134.23,0,190.37-7.44,10-19.42,24.79-32.57,12.45-13.99-13.12,4.08-26.84,11.12-37.66,29.57-45.43,27.37-101.92-4.06-145.65-5.94-8.26-14.96-13.99-11.16-25.57,1.56-4.75,6.4-9.46,11.42-10.33Z"/>
  <path d="M80.79,80.42c12.75-2.61,23.42,8.37,19.32,20.82-1.65,5.03-9.91,13.03-13.41,18.09-29.6,42.84-30.29,99.03-1.82,142.65,7,10.73,23.41,22.59,12.61,36.14-8.17,10.24-19.51,5.87-27.02-2.23-47.82-51.58-49.9-136.71-10.79-193.83,3.93-5.73,14.49-20.29,21.1-21.65Z"/>
  <path d="M132.55,119.43c9.26-1.58,18.43,4.82,18.99,14.42s-6.84,14.06-11.9,21.16c-15.43,21.66-15.44,52.3,0,73.97,2.9,4.07,7.68,7.86,9.75,12,8.47,16.88-11.98,31.75-26.05,18.55-23.92-22.46-32.16-61.34-24.13-92.44,3.35-12.99,19.02-45.22,33.34-47.66Z"/>
  <path d="M248.75,119.54c11.2-.03,21.91,16.25,26.89,25.2,19.44,34.95,15.65,87.86-15.38,115.15-14.46,12.72-33.88-2.64-25.66-18.91,1.94-3.84,7-8.09,9.77-11.98,15.43-21.74,15.39-52.24,0-73.97-5.71-8.06-14.56-12.84-10.73-24.51,2.09-6.35,8.43-10.95,15.12-10.97Z"/>
  <path d="M188.07,168.2c32.84-4.69,37.71,44.09,7.22,47.72-32.08,3.82-36.99-43.46-7.22-47.72Z"/>
</svg>