<?xml version="1.0" encoding="UTF-8"?>
<svg id="Layer_1" xmlns="http://www.w3.org/2000/svg" version="1.1" viewBox="0 0 408.6 408.8">
  <!-- Generator: Adobe Illustrator 29.5.0, SVG Export Plug-In . SVG Version: 2.1.0 Build 137)  -->
  <path d="M408.6,192.4v23.9l-4.5,31c-16.5,77.8-79.1,140.3-156.9,156.8l-31,4.5c-7.9-.3-16.1.5-23.9,0C12.7,398.4-67,174.1,67.2,52.7c127.1-114.9,331.6-29.7,341.4,139.7h0ZM190.5,32.2C83.2,39.3,9.6,146.6,37.6,250c32.4,119.7,180.2,167.3,276.4,87.6C443.7,230.1,359.2,21,190.5,32.2Z"/>
  <path d="M179.4,289.6c-5.7,0-11.4-2.1-16.8-6.4l-.9-.7-.7-.8c-8.1-9.6-18.2-19.1-28-28.2-10.4-9.7-21.2-19.8-30-30.4-5.6-6.8-11.3-16.2-5.3-29.5,4.1-9.2,13.3-15.1,23.3-15.1s11.4,2,16,5.7l.4.3,41.2,41.2,89.4-98.3.3-.2c2-1.9,7.3-6.5,13.8-7.6,1.6-.3,3.3-.4,4.9-.4,9.5,0,18.3,5,22.9,13.2,4.6,8.2,4.4,18-.6,26.3l-.6,1-.8.8c-16.9,17.6-33.6,36.7-49.7,55.3-18.5,21.4-37.7,43.5-57.7,63.5-7,7-13.9,10.4-21.1,10.4h0Z"/>
  <path d="M283.8,129.5c14.2-2.4,24.2,11.8,16.9,24-36.6,38-70.2,81.4-107.2,118.7-7.7,7.8-15.3,10.5-24.7,3.2-17.1-20.3-41.3-38.5-57.9-58.6-5.1-6.2-7.4-11.3-3.9-19.1,4.1-9.2,15.9-12.2,23.9-5.7l48.3,48.3,96.2-105.8c2.2-2.1,5.6-4.4,8.6-5h0Z"/>
</svg>